<?xml version="1.0" encoding="UTF-8" standalone="no"?><!DOCTYPE svg PUBLIC "-//W3C//DTD SVG 1.1//EN" "http://www.w3.org/Graphics/SVG/1.1/DTD/svg11.dtd"><svg width="100%" height="100%" viewBox="0 0 40 40" version="1.1" xmlns="http://www.w3.org/2000/svg" xmlns:xlink="http://www.w3.org/1999/xlink" xml:space="preserve" xmlns:serif="http://www.serif.com/" style="fill-rule:evenodd;clip-rule:evenodd;stroke-linejoin:round;stroke-miterlimit:1.41421;"><rect id="icon_1" x="4" y="4" width="32" height="32" style="fill:none;"/><path d="M16.672,12.762l7.848,0l0,6.207l6.144,0c0.714,0 1.293,0.579 1.293,1.293l0,3.879l-3.202,0l0,2.095l3.873,0c0.007,0 0.014,0 0.02,0c1.713,0 3.104,1.39 3.104,3.103c0,1.713 -1.391,3.104 -3.104,3.104l0,0l-17.498,0l0,0c-1.713,0 -3.103,-1.391 -3.103,-3.104c0,-1.713 1.39,-3.103 3.103,-3.103c0.007,0 0.014,0 0.02,0l3.228,0l0,-2.095l-3.197,0l-0.005,0l0,-5.172l0.005,0l0,-4.752l-6.574,-6.574l0,8.15c1.364,0.322 2.715,0.887 3.861,1.707c0.037,0.026 0.073,0.053 0.11,0.08c0.061,0.045 0.122,0.091 0.182,0.138c0.051,0.046 0.095,0.1 0.13,0.16c0.106,0.181 0.12,0.405 0.037,0.598c-0.031,0.072 -0.06,0.113 -0.109,0.174c-0.043,0.054 -0.102,0.1 -0.161,0.135l-0.044,0.021c-2.216,0.937 -3.862,2.911 -4.466,5.231c-0.197,0.756 -0.337,1.637 -0.241,2.425c0,0.187 -0.152,0.35 -0.338,0.338c-0.139,-0.008 -0.189,-0.056 -0.267,-0.152c-0.037,-0.045 -0.482,-0.724 -0.679,-1.044c-3.201,-5.189 -3.041,-7.266 -3.041,-7.266c0,-1.601 1.3,-2.9 2.9,-2.9l0.057,0.005l0,-10.726l2.069,0l8.045,8.045Zm-1.522,14.977c0.857,0 1.552,0.695 1.552,1.551c0,0.857 -0.695,1.552 -1.552,1.552c-0.856,0 -1.552,-0.695 -1.552,-1.552c0,-0.856 0.696,-1.551 1.552,-1.551Zm5.089,0.566l12.419,0c0.571,0 1.035,0.463 1.035,1.034c0,0.571 -0.464,1.035 -1.035,1.035l-12.419,0c-0.571,0 -1.035,-0.464 -1.035,-1.035c0,-0.571 0.464,-1.034 1.035,-1.034Zm2.751,-13.978l-4.674,0c-0.846,0 -1.533,0.686 -1.533,1.532l0,6.743l6.207,0l0,-8.275Z"/></svg>